# xmcd
#
# Track frame offsets:
#	150
#	15821
#	40265
#	55839
#	76048
#	103722
#	125059
#	144994
#	170463
#	198805
#	218357
#	233398
#	253650
#	270289
#	284319
#
# Disc length: 4027 seconds
#
# Revision: 0
# Processed by: cddbd v1.5.2PL0 Copyright (c) Steve Scherf et al.
# Submitted via: EasyCDDAExtractor 16.0.6.1
#
DISCID=b50fb90f
DTITLE=Gawędy Simony Kossak - Jesień
DYEAR=2003
DGENRE=Vocal
TTITLE0=Powitanie jesieni
TTITLE1=Apetyt na orzechy
TTITLE2=Motyle i pasikoniki
TTITLE3=Jelenie na rykowisku
TTITLE4=Żegnamy bociany
TTITLE5=Wędrówki ptaków
TTITLE6=Ptasi kaledarz
TTITLE7=GPS w dziobie
TTITLE8=Nocne ptaków przeloty
TTITLE9=Nawigacja na medal
TTITLE10=Nareszcie w domu
TTITLE11=Co z tą jesienią
TTITLE12=Goście ze skandynawii
TTITLE13=Podziemni lokatorzy
TTITLE14=Smutny listopad
EXTD=
EXTT0=
EXTT1=
EXTT2=
EXTT3=
EXTT4=
EXTT5=
EXTT6=
EXTT7=
EXTT8=
EXTT9=
EXTT10=
EXTT11=
EXTT12=
EXTT13=
EXTT14=
PLAYORDER=
